# xmcd CD database file
#
# Track frame offsets:
#	150
#	23026
#	43014
#	63308
#	80747
#	102641
#	124310
#	146536
#	169581
#	192794
#	213533
#	237569
#	257185
#	279181
#	299994
#
# Disc length: 4252 seconds
#
# Revision: 6
# Processed by: cddbd v1.5.2PL0 Copyright (c) Steve Scherf et al.
# Submitted via: CDex 1.70beta3
#
DISCID=ed109a0f
DTITLE=モーニング娘。 - ベスト！モーニング娘。１
DYEAR=2001
DGENRE=JPop
TTITLE0=LOVE MACHINE
TTITLE1=抱いて HOLD ON ME!
TTITLE2=恋のダンスサイト
TTITLE3=サマーナイトタウン
TTITLE4=ハッピーサマーウェディング
TTITLE5=I WISH
TTITLE6=恋愛レボリューション21
TTITLE7=Memory 青春の光
TTITLE8=真夏の光線
TTITLE9=モーニングコーヒー
TTITLE10=ふるさと
TTITLE11=Say Yeah! -もっとミラクルナイト-
TTITLE12=DANCE するのだ!
TTITLE13=Never Forget
TTITLE14=愛の種
EXTD=YEAR: 2001
EXTT0=
EXTT1=
EXTT2=
EXTT3=
EXTT4=
EXTT5=
EXTT6=
EXTT7=
EXTT8=
EXTT9=
EXTT10=
EXTT11=
EXTT12=
EXTT13=
EXTT14=
PLAYORDER=
